<svg width="123" height="26" fill="none" xmlns="http://www.w3.org/2000/svg"><g opacity=".5" fill="#fff"><path d="M118.324 3.296c2.496 0 4.518-.738 4.518-1.648 0-.91-2.022-1.648-4.518-1.648-2.497 0-4.52.738-4.52 1.648 0 .91 2.023 1.648 4.52 1.648z"/><path fill-rule="evenodd" clip-rule="evenodd" d="M91.127 21.979V11.58c0-1.595-.071-3.258-1.783-4.437-1.626-1.12-4.22-1.113-5.391-1.11l-.17.001c-1.07 0-4.635 0-6.276 1.803-1.455 1.6-1.394 3.145-1.362 3.957.004.103.007.193.007.271h4.671s.32-2.357.962-2.98c.646-.628 2.354-1.318 3.673-.209.485.41.676.936.676 1.525v2.981c0 .278-.285.694-.64.694 0 0-6.49.138-7.63.97l-.175.127c-1.066.77-1.965 1.418-1.965 4.31 0 3.05.785 4.229 1.712 4.853.104.07.201.14.298.21.772.56 1.527 1.108 5.264 1.108h9.982v-2.011c-.854 0-1.853-.693-1.853-1.664zm-5.49 1.594c.213 0 .499-.242.499-.416v-5.65c0-.59-.214-1.49-1.32-1.49h-.083c-1.155-.003-3.802-.006-3.802 2.53v2.669c0 .901.499 2.357 2.246 2.357h2.46zM33.941 19.83h-4.99v1.872c0 .762-.144 2.357-2.497 2.357-2.353 0-3.065-1.525-3.065-2.634v-3.952c0-.346.285-.832.784-.832h9.768V11.58c0-2.288-.499-2.981-1.497-3.952-.998-.97-4.493-1.247-6.061-1.247-3.993 0-5.277.554-6.418 1.455-1.14.901-1.568 2.773-1.568 4.16v7.833c0 2.08.428 3.536 1.782 4.853C21.533 26 25.669 26 26.525 26h.112c.97.003 3.678.01 5.664-1.387 2.068-1.456 1.64-4.783 1.64-4.783zm-7.7-11.37c-2.496 0-2.852 1.665-2.852 2.774v2.565c0 .415.428.762.855.762h3.85a.855.855 0 00.856-.832v-2.495c0-.97-.214-2.773-2.71-2.773z"/><path d="M44.052 6.935c0 .555.713 1.109 1.141 1.248.499-.347 3.137-1.802 5.205-1.802s3.137 1.039 3.137 2.634v7.626h-4.99v-5.893c0-.762-.215-1.317-.927-1.386-.714-.07-2.568 1.386-3.067 2.08v10.537c0 .971.999 1.664 1.854 1.664v2.011h-8.698v-2.08c.855 0 1.782-.277 1.854-1.525V10.332c0-.347-.571-1.318-1.854-1.318v-2.08h6.345zM64.444 8.183c-.427-.14-1.14-.693-1.14-1.248H56.96v2.08c1.283 0 1.854.97 1.854 1.317v11.717c-.072 1.248-.999 1.525-1.854 1.525v2.08h8.698v-2.01c-.856 0-1.854-.694-1.854-1.665V11.442c.499-.694 2.353-2.15 3.065-2.08.714.069.927.624.927 1.386v5.893h4.992V9.015c0-1.595-1.07-2.634-3.137-2.634-2.068 0-4.706 1.455-5.206 1.802zM114.302 6.935H123v2.08c-.927 0-1.854.624-1.854 1.455V21.98c0 .97.999 1.664 1.854 1.664v2.01h-8.698v-2.08c.855 0 1.782-.277 1.853-1.524V10.332c0-.347-.57-1.317-1.853-1.317v-2.08zM103.035 8.183c-.428-.14-1.142-.693-1.142-1.248h-6.346v2.08c1.284 0 1.854.97 1.854 1.317v11.717c-.07 1.248-.997 1.525-1.854 1.525v2.08h8.699v-2.01c-.856 0-1.854-.694-1.854-1.665V11.442c.5-.694 2.354-2.15 3.067-2.08.712.069.927.624.927 1.386v5.893h4.991V9.015c0-1.595-1.069-2.634-3.137-2.634-2.069 0-4.706 1.455-5.205 1.802z"/><path d="M0 23.157v2.496h12.479v-2.495h-1.284c-1.854 0-2.638-1.178-2.638-1.803v-5.823c0-1.11.713-1.387 1.569-1.318 1.066.086 1.853 1.248 1.853 1.942h2.14V8.46h-2.14c0 2.288-1.497 2.357-1.925 2.357-.428 0-1.283-.208-1.497-.762V5.34c0-1.803 1.212-2.01 2.139-2.01H111.62V.14H1.926L.072 3.331h1.64c1.782 0 1.853 2.148 1.853 3.05v14.974c0 1.664-1.426 1.802-2.139 1.802H0z"/></g></svg>
