<svg width="105" height="39" fill="none" xmlns="http://www.w3.org/2000/svg"><g opacity=".5" fill="#9681F2"><path d="M68.466 22.31c1.218-1.463 2.708-2.46 3.894-2.328 1.454.166 1.59 1.563.88 2.86l.372.1S72.46 24.837 71.276 26c-2.099 2.094-3.454 1.395-3.758 1.163-.305-.233-.542-1.064-.407-1.895.102-.831.745-2.228 1.355-2.959z"/><path fill-rule="evenodd" clip-rule="evenodd" d="M3.657 19.517c0 8.91 21.84 16.125 48.86 16.125 26.986 0 48.893-7.215 48.893-16.126 0-8.876-21.907-16.091-48.893-16.091-27.02 0-48.86 7.215-48.86 16.091zM50.36 9.409c-.857-.282-1.613-.53-2.23-.694.097.09.165.238.087.43-.034.066-.372.431-.507.53-.097.087-.228.19-.389.318-.954.757-2.951 2.342-5.097 5.9 2.032-.1 4.402-.499 4.402-.499s-.135-.432-.135-.797c.102-1.43.948-2.295 2.032-2.128.61.1 1.015.598 1.015 1.13 0 .565-.44 1.396-.88 1.795a6.347 6.347 0 01-1.05.665c0 .366.507.665.948.699a3.73 3.73 0 00-.061.26c-.038.183-.054.262-.176.239-1.016 0-1.422-.965-1.422-.965-1.354.233-2.675.4-5.35.665-6.738 10.706-8.837 12.468-12.968 12.468-2.946 0-5.553-1.895-5.621-5.286-.034-2.061 1.659-4.588 4.808-5.353.373 0 .508.133.508.333 0 .133-.136.299-.44.432-.915.333-2.506 2.094-2.506 3.724 0 1.23.779 2.593 2.099 2.892.298.08.575.075.847.07.068-.002.135-.003.203-.003 3.284 0 6.975-3.624 10.97-9.143-.643.033-3.386.332-4.063 1.097-.304.232-.507.1-.575-.167 0-.066.101-.299.204-.432.985-1.089 3.763-1.407 4.843-1.53.108-.013.198-.023.269-.033 2.903-4.37 6.605-7.173 7.652-7.4a8.13 8.13 0 00-.067-.014c-2.608-.599-4.978-1.097-6.84-1.097-6.535 0-9.448 2.76-9.312 5.286.068 1.03.914 1.696 2.167 1.463 1.355-.233 3.25-1.497 3.725-2.594.101-.232.373-.266.474-.2.203.167.135.4.135.4-.169 1.296-2.2 4.887-5.722 4.887-1.964 0-3.284-1.795-3.25-3.558.033-3.291 3.453-6.616 11.884-6.616 1.591 0 3.386.133 5.35.466 2.268.399 7.923 1.33 12.528 1.396.274 0 .56.002.856.004 1.528.01 3.29.02 4.765-.203.89-.143 1.262-.233 1.489-.288.248-.06.323-.078.712-.078.677 0 .677.266.677.532 0 1.064-3.793 3.092-7.01 3.092-3.591 0-7.287-1.212-9.978-2.095zM65.227 22.82l.09-.08c.48-.443.915-.89 1.334-1.32 1.592-1.637 2.945-3.028 5.573-3.002 1.792.03 2.385 1.291 2.732 2.03.04.085.076.163.111.231l4.368-7.247h2.675l-7.245 12.6a5.12 5.12 0 01-.093.17c-.156.278-.376.669-.348.994.069.631.881.466.576.466 1.456-.067 4.13-2.793 4.774-3.458l.009-.01c.136-.17.367-.456.499-.456.136 0 .407.133.407.333 0 .133-.305.631-.542.93-1.355 1.663-3.59 4.223-6.129 4.29-1.252 0-1.727-.5-1.896-1.463-.575.498-2.54 1.363-4.537 1.363-1.66-.033-2.337-.998-2.675-1.762-.305-.631-.44-1.562-.204-2.493-.914.466-1.76.532-2.98.499-1.422-.034-2.303-.666-2.742-2.295l-.908 1.632a345.253 345.253 0 00-2.444 4.453h-2.878l3.69-6.151a7.941 7.941 0 00.88-2.194c.102-.4-.202-.765-.643-.798-.473 0-1.251.466-1.997 1.163 0 0-1.896 1.995-3.284 4.023-1.322 1.929-3.59 4.123-6.061 4.123-1.795 0-3.42-.964-3.759-2.826 0 0-.17.432-1.761 1.33l-.08.04c-.159.084-.41.215-.495.16-.305-.266-.474-.6-.508-.832.094.03.276-.11.816-.53l.132-.102c1.252-.93 1.523-1.663 1.523-1.663.245-.508.645-1.254.985-1.89l.234-.437c1.017-1.995 2.777-4.023 5.655-4.123.474 0 .61.2.711.366.27.2.17.598.17.598-2.032.3-3.42 1.463-4.267 2.594-.507.731-1.05 1.928-1.151 2.792-.203 1.496.508 2.493 1.557 2.726 1.964.3 3.59-1.097 4.876-3.258.34-.565.576-2.028.576-2.826s-.44-1.63-.779-1.962c0-.565.372-.93.812-.93.136 0 .271 0 .407.132.677.665 1.05 1.929 1.05 2.893 0 .333 0 .665-.068.998l.176-.21c1.392-1.662 3.097-3.698 4.43-4.112.27-.133.54-.133.811-.133 2.54-.067 2.201 2.194 2.201 2.194 1.354-1.53 2.303-2.095 3.555-2.028 1.355.066 1.829.998 1.829 1.729-.035.864-.677 1.861-1.793 1.895-.984 0-1.559-.466-1.864-1.33-.643.233-.947.665-1.083 1.53-.204 1.096.643 1.96 1.727 1.96 1.78.001 2.602-.729 3.263-1.316z"/><path fill-rule="evenodd" clip-rule="evenodd" d="M0 19.517C0 30.288 23.5 39 52.517 39 81.5 39 105 30.288 105 19.517 105 8.745 81.5 0 52.517 0 23.499 0 0 8.745 0 19.517zm103.001 0c0 9.708-22.584 17.488-50.484 17.488-27.833 0-50.451-7.78-50.451-17.489 0-9.674 22.618-17.554 50.45-17.554 27.901 0 50.485 7.88 50.485 17.555z"/></g></svg>