<svg width="98" height="39" fill="none" xmlns="http://www.w3.org/2000/svg"><path opacity=".5" fill-rule="evenodd" clip-rule="evenodd" d="M81.764 20.823c-.08 4.35.87 6.654 4.498 6.654 3.622 0 4.142-3.925 4.142-6.912 0-2.988-.688-5.89-4.492-5.89-2.335 0-4.058 1.794-4.148 6.148zM74.425 39V9.556h7.429v1.195c0 1.593.65.936 1.174.315.087-.104 1.743-2.107 5.471-2.107 3.718 0 9.501 2.56 9.501 11.607 0 6.998-3.45 12.117-9.409 12.117-3.283 0-5.181-1.277-5.615-1.793-.435-.509-1.038-.598-1.038 0V39h-7.513zM17.008 0h8.03v20.823c0 3.582-1.556 11.094-12.692 11.094C1.208 31.917 0 24.915 0 20.993v-3.84h7.771v3.753c0 2.304 1.555 4.436 4.488 4.436 2.935 0 4.749-1.62 4.749-4.35V0zM41.83 17.665c0-2.136-1.206-4.184-3.969-4.184-2.676 0-3.627 1.876-3.627 4.184h7.596zm-4.743-8.962c6.306 0 11.83 2.389 11.83 13.398H33.981c0 3.499 1.466 4.95 4.056 4.95 2.591 0 3.454-2.05 3.454-2.05h7.34c0 3.16-4.403 7.426-11.053 7.341-7.596 0-11.309-5.547-11.309-11.265 0-5.72 3.279-12.374 10.618-12.374zm28.62 8.962c0-2.136-1.208-4.184-3.971-4.184-2.675 0-3.628 1.876-3.628 4.184h7.599zm-4.744-8.962c6.305 0 11.827 2.389 11.827 13.398H57.857c0 3.499 1.467 4.95 4.06 4.95 2.587 0 3.451-2.05 3.451-2.05h7.342c0 3.16-4.405 7.426-11.053 7.341-7.6 0-11.313-5.547-11.313-11.265 0-5.72 3.283-12.374 10.62-12.374z" fill="#9681F2"/></svg>