<svg width="77" height="39" fill="none" xmlns="http://www.w3.org/2000/svg"><path opacity=".5" fill-rule="evenodd" clip-rule="evenodd" d="M25.15 19.073a1447.68 1447.68 0 006.44 9.103c.105.137.148.665-.285.665l-4.54.031c-.476 0-.93-.38-1.162-.654l-2.83-3.481-2.67-3.302-.01 6.72c0 .285-.254.707-.55.717l-4.18.021c-.296 0-.719-.464-.719-.77v-16.13c0-.168-.76-.295-.75-.907.011-.622.317-.749.655-.749h4.879c.263 0 .696.264.696.676l-.02 6.034 2.67-3.492 1.922-2.5c.274-.348.908-.749 1.225-.749l4.255.032c.443 0 .696.358.485.675l-5.511 8.06zm15.668-8.735c.37 0 .717.264.717.675v17.143c0 .4-.126.685-.6.685l-2.577.021-1.731.011c-.37 0-.634-.285-.634-.718V11.878c0-.01-.687-.19-.792-.844.095-.358.222-.696.792-.696h4.825zm14.686-8.313C68.227 5.211 77 11.857 77 19.505c0 7.649-8.774 14.295-21.497 17.48C50.373 38.283 44.597 39 38.495 39h-.137c-5.533 0-10.812-.611-15.584-1.698C9.376 34.242 0 27.407 0 19.505 0 11.604 9.376 4.768 22.774 1.71 27.546.622 32.826.01 38.358.01c.052 0 .095-.01.137-.01 6.103 0 11.878.728 17.009 2.025zm0 30.71c11.117-2.554 18.688-7.533 18.688-13.23 0-5.696-7.57-10.675-18.688-13.228-5.057-1.17-10.854-1.835-17.009-1.835h-.137c-5.575.01-10.864.57-15.584 1.55C10.96 8.45 2.81 13.588 2.81 19.506c0 5.918 8.15 11.055 19.965 13.513 4.72.981 10.01 1.54 15.584 1.54.052 0 .095.01.137.01 6.155 0 11.952-.664 17.009-1.835zm3.325-21.7l5.83 17.163c.073.21-.202.675-.434.675l-3.991-.032c-.264 0-.76-.39-.834-.632L55.842 17.3c-.032-.106-.19-.159-.338-.159-.094 0-.19.043-.222.116-.6 1.815-1.214 3.63-1.826 5.444l-1.816 5.443c-.138.412-.613.696-.95.696l-3.833.032c-.338 0-.58-.507-.486-.78l5.501-16.215c.053-.137-.919-.105-.908-1.034 0-.316.317-.506.549-.506h6.525c.359 0 .634.338.791.697z" fill="#9681F2"/></svg>