<svg width="131" height="17" fill="none" xmlns="http://www.w3.org/2000/svg"><g opacity=".5" fill="#9681F2"><path d="M3.433 3.419C1.693 3.044.376 1.545 0 .047L21.488 0v.047c-.376 1.498-1.645 2.903-3.432 3.372h-5.36l-.282.093v13.441H9.075V3.513l-.282-.094h-5.36zM33.056 3.419H45.75c1.787-.328 3.104-1.92 3.433-3.419H29.576c.376 1.499 1.693 3.044 3.48 3.419zM127.567 3.419h-12.695c-1.74-.375-3.056-1.92-3.433-3.419H131c-.376 1.499-1.646 3.09-3.433 3.419zM111.957 17V6.744h18.62V17h-3.292v-6.838h-12.037V17h-3.291zM101.941 17c1.646-.703 2.539-1.92 2.915-3.325H90.045V.047h-3.339V17h15.235zM73.776 3.372H62.02l.047 3.372h15.234V17H57.79c.799-1.64 2.398-2.904 4.279-3.419H74.01V10.07H58.776V.047h18.62c-.376 1.452-1.834 2.81-3.62 3.325zM45.751 10.116H33.056c-1.787-.375-3.104-1.92-3.48-3.419h19.608c-.33 1.499-1.646 3.09-3.433 3.419zM33.056 17H45.75c1.787-.328 3.104-1.92 3.433-3.419H29.576c.376 1.499 1.693 3.091 3.48 3.419z"/></g></svg>